<svg xmlns="http://www.w3.org/2000/svg" viewBox="0 0 669.99 206.61"><defs><style>.cls-1,.cls-2,.cls-3,.cls-5{fill:none;}.cls-1,.cls-3,.cls-4,.cls-5{stroke:#fff;}.cls-1,.cls-2,.cls-3,.cls-4,.cls-5{stroke-miterlimit:10;}.cls-1{stroke-width:6px;}.cls-2{stroke:#28f7f1;stroke-width:10px;}.cls-3{stroke-width:7px;}.cls-4{fill:#39f;stroke-width:9px;}.cls-5{stroke-width:2px;}.cls-6{fill:#fff;}</style></defs><title>logo</title><g id="Layer_2" data-name="Layer 2"><g id="Layer_1-2" data-name="Layer 1"><path class="cls-1" d="M358,150.5A42.51,42.51,0,0,1,316,193H69A66,66,0,0,1,69,61h.48a66,66,0,0,1,129.83-6.93,66,66,0,0,1,76,15c.72,0,1.44-.06,2.17-.06a42.51,42.51,0,0,1,42.38,39.22A42.51,42.51,0,0,1,358,150.5Z"/><path class="cls-2" d="M172.69,118.62q0,14.67-5.15,33.22-6.82,24.33-17.13,24.33-9,0-13.13-11.46-2.31-6.44-3.47-19.05-3.09,14.55-4.9,19.44-4.75,13.26-11.58,13.26a12.54,12.54,0,0,1-9.15-4.25q-5.4-5.54-8.11-34.76-1.92-20-1.93-38.5,0-9.91,8.5-9.91c5.06,0,7.59,1.15,7.59,3.47a7,7,0,0,1-.93,3.28c-.63,1.15-1.23,2.29-1.82,3.4q-1.62,3.34-1.62,14,0,49.23,7.57,49.23,2.68,0,6.54-19.15,4.62-22.6,4.62-34.68,0-1.8,2.43-3.67a7.54,7.54,0,0,1,4.37-1.86,10.5,10.5,0,0,1,7,2.71,9.73,9.73,0,0,1,3.53,6.58q-2.58,3.75-2.58,13.81,0,36.26,6.83,36.26,6.56,0,10.17-20.64a157.08,157.08,0,0,0,2.44-26.31,35.1,35.1,0,0,0-.58-7.48,42,42,0,0,0-2.89-7.35c-1.38-2.75-2.06-4.81-2.06-6.19a11.63,11.63,0,0,1,1.41-5.67q1.8-3.22,4.64-3.23,4,0,7.08,13.65A85.78,85.78,0,0,1,172.69,118.62Z"/><path class="cls-3" d="M225.86,165.87q0,6.44-8.75,10a36.93,36.93,0,0,1-14.3,2.84q-19.81,0-19.82-22.54,0-9.27,4.5-20.6,5.53-13.91,13.39-13.9,7.08,0,15.26,6.31t8.18,13.13q0,8.5-7.6,13.52a28,28,0,0,1-16,4.51q-1.8,0-5.79-2.19.51,12.22,7.21,12.23A21.7,21.7,0,0,0,213.31,166q5.46-3.23,7-3.22Q225.86,162.78,225.86,165.87Zm-14-24.33a11.15,11.15,0,0,0-1.87-6.12,5.69,5.69,0,0,0-5-2.9,7.31,7.31,0,0,0-6.56,3.74,14.44,14.44,0,0,0-1.93,7.59,5.17,5.17,0,0,0,1.67,4,6,6,0,0,0,4.25,1.54Q211.82,149.39,211.83,141.54Z"/><path class="cls-4" d="M296,156.06a17.44,17.44,0,0,1-1.29,5.9q-3.23,8.46-12.1,13.33a37,37,0,0,1-17.77,4.36q-15.84,0-24.33-12-7.35-10.41-7.34-26.87a75.72,75.72,0,0,1,4.25-25.59q4.76-13.62,14-21.34,7.34-6,14.94-6,10.93,0,16.6,9.53,4.64,7.73,4.64,19.44,0,5.28-2.7,13.26-3.22,9.78-7.21,9.78-4.51,0-6.83-5.66a44.79,44.79,0,0,0,3.61-3q2.57-2.84,2.57-11.08a47.39,47.39,0,0,0-1.67-13.51q-2.58-8.37-8.5-8.37-4.12,0-9,5.27a40.62,40.62,0,0,0-6.31,8.86q-6.31,12.35-6.31,30.72,0,26.73,20.09,26.73,8.63,0,13.64-4.86,2.07-2.17,6.05-9.08,2.71-5,5.8-5a4.84,4.84,0,0,1,3.6,1.6A5,5,0,0,1,296,156.06Z"/><path class="cls-1" d="M350.88,151.84q0,11.58-5.8,19.82-6.69,9.41-17.77,9.4-11.32,0-17.12-7.72-5.28-6.83-5.28-18.54a43.89,43.89,0,0,1,5.8-21.89q6.69-12.22,17.38-12.23,3.35,0,8.37,3Q350.88,132.26,350.88,151.84Zm-11.33-.26q0-19.7-9.53-19.7-6.82,0-10.3,8.37a37.49,37.49,0,0,0-2.58,14.29q0,17.13,10.17,17.12,6.57,0,9.79-7.08A31.35,31.35,0,0,0,339.55,151.58Z"/><path class="cls-1" d="M409.74,168.19q-1,3.41-3.66,4.26-2.08.66-7.65-.29l-.46-1.48q-.86-2.7-2.39-8c-1-3.54-1.8-6.14-2.31-7.77q-8.28-26.28-16.09-23.82-2.21.69-3.93,5-5.34,13.29-.66,28.15a36.17,36.17,0,0,0,2.75,6,38.39,38.39,0,0,1,2.75,5.95,3.49,3.49,0,0,1-.71,3.33,6.23,6.23,0,0,1-3.09,2.19q-7.37,2.31-10.31-7L355.9,149a26.42,26.42,0,0,1-.66-3,28.57,28.57,0,0,0-.66-3,32.78,32.78,0,0,0-1.79-4.16,32,32,0,0,1-1.74-4q-.62-2,1.09-4.47a7.33,7.33,0,0,1,3.55-3.07c1.81-.57,4-.12,6.5,1.33l1.18,5q2.25-8.68,8.89-10.77a18.33,18.33,0,0,1,10,.09,21.28,21.28,0,0,1,9.08,4.43q8,7.76,12.77,23Z"/><path class="cls-5" d="M454.47,147.43c-1.39,1.91-3,2.81-4.91,2.72q-2.19-.12-7.07-2.94l.08-1.54c.09-1.89.28-4.67.55-8.35s.45-6.38.54-8.1q1.41-27.51-6.78-27.93c-1.54-.08-3.34,1-5.43,3.33q-9.63,10.6-10.43,26.16a38,38,0,0,0,.51,6.53,36.92,36.92,0,0,1,.5,6.54,3.47,3.47,0,0,1-1.82,2.87,6.21,6.21,0,0,1-3.66,1q-7.71-.4-7.22-10.17l1.37-26.87a26.51,26.51,0,0,1,.41-3,24.37,24.37,0,0,0,.41-3,31.2,31.2,0,0,0-.22-4.52,31.71,31.71,0,0,1-.22-4.4q.09-2.06,2.57-3.8a7.27,7.27,0,0,1,4.41-1.64q2.82.14,5.62,3.5L423,98.91q5.14-7.35,12.09-7a18.26,18.26,0,0,1,9.36,3.57,21.27,21.27,0,0,1,7,7.31q4.77,10,4,26Z"/><path class="cls-1" d="M516.61,155q2.8,5.81-3.51,12.86a36.93,36.93,0,0,1-11.63,8.77q-17.85,8.64-27.66-11.65-4-8.34-4.92-20.5-1.06-14.94,6-18.35,6.38-3.09,16.48-1t13.08,8.26q3.71,7.65-.95,15.48a27.86,27.86,0,0,1-12.41,11c-1.08.52-3.14.71-6.17.55q5.79,10.8,11.82,7.87a21.67,21.67,0,0,0,8.62-7.74q3.52-5.28,4.92-6Q515.26,152.2,516.61,155Zm-23.23-15.79a11.1,11.1,0,0,0-4.34-4.69,5.67,5.67,0,0,0-5.73-.45,7.3,7.3,0,0,0-4.28,6.22,14.45,14.45,0,0,0,1.57,7.68,5.17,5.17,0,0,0,3.24,2.86,6,6,0,0,0,4.5-.46Q496.8,146.26,493.38,139.18Z"/><path class="cls-5" d="M567,150.64q1.86,3.54-1,11.13-2.48,7-5.7,10.09a28.86,28.86,0,0,1-6.65,4.93q-9,4.69-17.08,1.65t-12.76-12.08q-4.59-8.79-5.57-22.07-1.2-15.93,6.23-19.81,4.1-2.15,11.59-2,8,.31,10.89,3.32a27.68,27.68,0,0,1,4.54,6.49,28.91,28.91,0,0,1,2.69,8.76q1.15,6.68-1.59,8.09a7.2,7.2,0,0,1-4.24.77,4,4,0,0,1-3.66-2c0-.08-.15-1.12-.33-3.15,0-.95-.91-3.13-2.69-6.54a29.59,29.59,0,0,0-3.19-5.27q-2.52-3.16-5-1.86-5.6,2.92-3.63,14.2A53.06,53.06,0,0,0,535,161q6.35,12.18,14.11,8.13,3.09-1.6,5.41-6.89a20.76,20.76,0,0,0,2-8.73q-.07-4.6,2.55-6,1.71-.9,4.35.27A6.84,6.84,0,0,1,567,150.64Z"/><path class="cls-1" d="M593.33,125.08q2.16,2.73-5.24,10.4,1.56,2.37,7.79,10.25l5.28,6.66a55.37,55.37,0,0,0,5.32,5.47,54.54,54.54,0,0,1,5.24,5.38,4.59,4.59,0,0,1,.67,4.15,6.69,6.69,0,0,1-2.23,3.82c-1.69,1.33-4.24,1-7.68-1a22.42,22.42,0,0,1-6.43-5.42l-16.95-21.4c-3.46,2-5.49,3.1-6.06,3.33q-3.27,1.27-4.47-.24a3.33,3.33,0,0,1-.52-1.07q-.33-5.81,2.9-8.37l.61-.48a3,3,0,0,0,.68-.38q2.12-1.68-1.9-6.54l-5.83-7.37a6,6,0,0,1-2-1.52,3.75,3.75,0,0,1-.33-3.59,6.79,6.79,0,0,1,2.11-3.4,7.08,7.08,0,0,1,5.56-1.2,7.66,7.66,0,0,1,5.22,2.68,20.17,20.17,0,0,1,3,5.4,18.05,18.05,0,0,0,3.22,5.41l.32.41Q590.13,121.05,593.33,125.08Z"/><path class="cls-1" d="M609,171.68s38-17.47,51.15-13.1,6.23,34.3-10.61,36.8"/><path class="cls-6" d="M644.78,187.89H632.93a9.38,9.38,0,0,0-9.36,9.36h0a9.38,9.38,0,0,0,9.36,9.36h11.85a9.38,9.38,0,0,0,9.36-9.36h0A9.38,9.38,0,0,0,644.78,187.89Zm-11.85,6.87h-.62a1.25,1.25,0,0,1,0-2.5h.62a1.25,1.25,0,0,1,0,2.5Zm8.11,6.86H637.3a1.25,1.25,0,0,1,0-2.5H641a1.25,1.25,0,0,1,0,2.5Zm5-6.86h-.63a1.25,1.25,0,0,1,0-2.5H646a1.25,1.25,0,0,1,0,2.5Z"/></g></g>
</svg>
