<svg xmlns="http://www.w3.org/2000/svg" xmlns:xlink="http://www.w3.org/1999/xlink" viewBox="0 0 638.42 204.82"><defs><style>.cls-1,.cls-4,.cls-5,.cls-6,.cls-8{fill:none;}.cls-2{fill:#932142;stroke:#9e005d;}.cls-2,.cls-4,.cls-5,.cls-6,.cls-7,.cls-8{stroke-miterlimit:10;}.cls-3{fill:#d9fcfc;}.cls-4,.cls-6,.cls-8{stroke:#fff;}.cls-4{stroke-width:6px;}.cls-5{stroke-width:10px;stroke:url(#New_Pattern_Swatch_5);}.cls-6{stroke-width:7px;}.cls-7{fill:#39f;stroke-width:9px;stroke:url(#New_Pattern_Swatch_1);}.cls-8{stroke-width:2px;}.cls-9{fill:#fff;}</style><pattern id="New_Pattern_Swatch_5" data-name="New Pattern Swatch 5" width="109" height="109" patternUnits="userSpaceOnUse" viewBox="0 0 109 109"><rect class="cls-1" width="109" height="109"/><rect class="cls-3" width="109" height="109"/></pattern><pattern id="New_Pattern_Swatch_1" data-name="New Pattern Swatch 1" width="110" height="110" patternUnits="userSpaceOnUse" viewBox="0 0 110 110"><rect class="cls-1" width="110" height="110"/><rect class="cls-2" x="0.5" y="0.5" width="109" height="109"/></pattern></defs><title>Asset 7</title><g id="Layer_2" data-name="Layer 2"><g id="Layer_1-2" data-name="Layer 1"><path class="cls-4" d="M341.12,149.21c0,23.09-17.87,41.86-40,42.12H65.86C31.15,191.33,3,162,3,125.91S31.15,60.49,65.86,60.49h.46C70.08,28.11,96.59,3,128.72,3,158.56,3,183.53,24.62,190,53.63a60.6,60.6,0,0,1,26.37-6,61.52,61.52,0,0,1,46,20.87c.69,0,1.37-.06,2.07-.06,21.31,0,38.76,17.13,40.36,38.88C325.21,109.47,341.12,127.41,341.12,149.21Z"/><path class="cls-5" d="M164.62,117.61q0,14.53-4.9,32.92-6.51,24.12-16.31,24.12-8.59,0-12.51-11.36-2.21-6.37-3.31-18.88-3,14.42-4.66,19.27-4.55,13.14-11,13.14-4.78,0-8.71-4.21-5.15-5.49-7.72-34.46Q93.62,118.38,93.62,100q0-9.83,8.09-9.82c4.82,0,7.24,1.14,7.24,3.44a7,7,0,0,1-.9,3.25c-.59,1.14-1.17,2.27-1.72,3.37q-1.56,3.31-1.55,13.89,0,48.8,7.21,48.79,2.57,0,6.23-19,4.4-22.41,4.4-34.39c0-1.18.77-2.39,2.32-3.63a7,7,0,0,1,4.15-1.84,10.4,10.4,0,0,1,10,9.21q-2.45,3.7-2.45,13.68,0,35.94,6.5,35.94,6.26,0,9.69-20.45a162.24,162.24,0,0,0,2.33-26.08,36.91,36.91,0,0,0-.55-7.41,43.1,43.1,0,0,0-2.76-7.29c-1.31-2.73-2-4.77-2-6.14a11.84,11.84,0,0,1,1.35-5.62q1.73-3.19,4.42-3.2,3.79,0,6.74,13.53A88.85,88.85,0,0,1,164.62,117.61Z"/><path class="cls-6" d="M215.27,164.44q0,6.39-8.34,10a34.06,34.06,0,0,1-13.62,2.8q-18.88,0-18.88-22.33,0-9.18,4.29-20.42,5.28-13.78,12.75-13.78,6.75,0,14.54,6.25t7.78,13a15.49,15.49,0,0,1-7.23,13.4,25.82,25.82,0,0,1-15.21,4.47c-1.14,0-3-.73-5.52-2.17q.49,12.12,6.87,12.12a20.09,20.09,0,0,0,10.61-3.19q5.2-3.19,6.68-3.19Q215.27,161.38,215.27,164.44ZM201.9,140.32a11.38,11.38,0,0,0-1.78-6.06,5.38,5.38,0,0,0-4.72-2.87,6.93,6.93,0,0,0-6.26,3.7,14.89,14.89,0,0,0-1.83,7.53,5.25,5.25,0,0,0,1.59,4,5.6,5.6,0,0,0,4,1.53Q201.89,148.11,201.9,140.32Z"/><path class="cls-7" d="M282.1,154.72a17.81,17.81,0,0,1-1.23,5.84,24.77,24.77,0,0,1-11.53,13.22,34.08,34.08,0,0,1-16.92,4.32q-15.09,0-23.18-11.85-7-10.32-7-26.64a77.92,77.92,0,0,1,4.05-25.36q4.53-13.52,13.37-21.16,7-6,14.22-6,10.42,0,15.82,9.45,4.41,7.65,4.42,19.27A44.1,44.1,0,0,1,271.55,129q-3.06,9.71-6.87,9.7-4.29,0-6.5-5.61a42.77,42.77,0,0,0,3.44-2.94q2.44-2.81,2.45-11a48.71,48.71,0,0,0-1.59-13.4q-2.46-8.3-8.1-8.3c-2.61,0-5.48,1.74-8.58,5.22a40.46,40.46,0,0,0-6,8.79q-6,12.24-6,30.45,0,26.5,19.13,26.5,8.22,0,13-4.82,2-2.15,5.76-9,2.58-4.94,5.52-4.94a4.57,4.57,0,0,1,3.44,1.59A5,5,0,0,1,282.1,154.72Z"/><path class="cls-4" d="M334.34,150.53q0,11.49-5.52,19.66-6.37,9.31-16.92,9.31-10.8,0-16.31-7.65-5-6.76-5-18.38a45,45,0,0,1,5.52-21.7q6.38-12.12,16.55-12.12c2.13,0,4.78,1,8,2.93Q334.34,131.13,334.34,150.53Zm-10.79-.25q0-19.53-9.08-19.53-6.5,0-9.81,8.3a38.44,38.44,0,0,0-2.45,14.16q0,17,9.69,17,6.25,0,9.32-7A32.31,32.31,0,0,0,323.55,150.28Z"/><path class="cls-4" d="M390.4,166.74q-.91,3.38-3.48,4.22-2,.66-7.29-.29l-.44-1.46q-.81-2.67-2.28-8c-1-3.51-1.71-6.08-2.2-7.71q-7.87-26-15.32-23.61c-1.4.46-2.64,2.12-3.74,5q-5.08,13.18-.64,27.91a38.33,38.33,0,0,0,2.62,5.9,37,37,0,0,1,2.62,5.89,3.54,3.54,0,0,1-.67,3.3,5.9,5.9,0,0,1-2.94,2.17q-7,2.29-9.82-7l-7.7-25.44a29.6,29.6,0,0,1-.63-2.94,24.74,24.74,0,0,0-.63-2.94,32.38,32.38,0,0,0-1.7-4.13,32,32,0,0,1-1.66-4,5.25,5.25,0,0,1,1-4.42,7,7,0,0,1,3.39-3q2.56-.84,6.18,1.32l1.12,5q2.16-8.59,8.47-10.67a16.83,16.83,0,0,1,9.54.09,20,20,0,0,1,8.66,4.39q7.59,7.68,12.16,22.77Z"/><path class="cls-8" d="M433,146.17c-1.32,1.89-2.88,2.78-4.67,2.69-1.39-.07-3.63-1.05-6.73-2.91l.07-1.53q.13-2.8.53-8.28t.51-8q1.34-27.28-6.46-27.69-2.19-.12-5.17,3.3-9.18,10.51-9.93,25.93a38.86,38.86,0,0,0,.48,6.48,38.69,38.69,0,0,1,.48,6.47,3.48,3.48,0,0,1-1.73,2.85,5.78,5.78,0,0,1-3.49,1q-7.35-.39-6.87-10.08l1.3-26.64a25.17,25.17,0,0,1,.39-3,25.17,25.17,0,0,0,.39-3,33.49,33.49,0,0,0-.21-4.48,34.62,34.62,0,0,1-.22-4.36,5.13,5.13,0,0,1,2.46-3.77,6.82,6.82,0,0,1,4.19-1.63c1.8.1,3.58,1.26,5.36,3.48l-.62,5.08q4.9-7.27,11.51-6.93a17,17,0,0,1,8.92,3.54,20.68,20.68,0,0,1,6.64,7.25q4.55,9.94,3.78,25.76Z"/><path class="cls-4" d="M492.19,153.64q2.67,5.75-3.34,12.74a35.36,35.36,0,0,1-11.08,8.7q-17,8.55-26.35-11.55-3.84-8.26-4.68-20.32-1-14.81,5.72-18.19,6.06-3.06,15.7-1t12.45,8.19q3.52,7.59-.9,15.34a27,27,0,0,1-11.82,10.92c-1,.51-3,.7-5.88.54q5.52,10.69,11.26,7.8a21,21,0,0,0,8.21-7.67q3.36-5.24,4.68-5.91Q490.92,150.89,492.19,153.64ZM470.07,138a10.85,10.85,0,0,0-4.14-4.65,5.21,5.21,0,0,0-5.45-.45,7.27,7.27,0,0,0-4.09,6.17,14.91,14.91,0,0,0,1.5,7.61,5,5,0,0,0,3.09,2.84,5.56,5.56,0,0,0,4.28-.46Q473.32,145,470.07,138Z"/><path class="cls-8" d="M540.15,149.35q1.76,3.51-1,11-2.35,6.9-5.43,10a27.19,27.19,0,0,1-6.33,4.88q-8.59,4.67-16.26,1.64t-12.16-12q-4.37-8.72-5.3-21.88-1.14-15.8,5.93-19.63,3.92-2.13,11-2,7.63.31,10.37,3.3a27.43,27.43,0,0,1,4.33,6.43,29.65,29.65,0,0,1,2.56,8.68c.73,4.41.22,7.08-1.51,8a6.76,6.76,0,0,1-4,.77,3.84,3.84,0,0,1-3.48-2c0-.08-.14-1.11-.32-3.12,0-1-.87-3.11-2.56-6.49a30,30,0,0,0-3-5.22c-1.61-2.09-3.2-2.7-4.8-1.84q-5.32,2.9-3.45,14.08a54.35,54.35,0,0,0,5,15.5q6.06,12.07,13.45,8,2.93-1.59,5.15-6.82a21.31,21.31,0,0,0,1.89-8.66c-.06-3,.75-5,2.42-5.92q1.64-.89,4.15.27A6.68,6.68,0,0,1,540.15,149.35Z"/><path class="cls-4" d="M565.26,124q2.06,2.7-5,10.31,1.49,2.35,7.43,10.16l5,6.6a54.29,54.29,0,0,0,5.07,5.42,54.21,54.21,0,0,1,5,5.33,4.71,4.71,0,0,1,.64,4.12,6.74,6.74,0,0,1-2.13,3.79q-2.4,2-7.31-1a21.4,21.4,0,0,1-6.12-5.37l-16.15-21.21q-5,3-5.78,3.3-3.1,1.26-4.25-.24a3.27,3.27,0,0,1-.49-1.06q-.32-5.76,2.76-8.29l.58-.48a3.08,3.08,0,0,0,.65-.38q2-1.67-1.81-6.48l-5.56-7.31a5.68,5.68,0,0,1-1.93-1.5,3.89,3.89,0,0,1-.31-3.57,6.67,6.67,0,0,1,2-3.36,6.53,6.53,0,0,1,5.29-1.19,7.18,7.18,0,0,1,5,2.66,20.16,20.16,0,0,1,2.9,5.35A18,18,0,0,0,553.8,125l.31.4Q562.21,120,565.26,124Z"/><path class="cls-4" d="M580.18,170.2s36.24-17.31,48.71-13,6,34-10.09,36.48"/><path class="cls-9" d="M614.27,186.27H603a9.13,9.13,0,0,0-8.91,9.28h0a9.12,9.12,0,0,0,8.91,9.27h11.29a9.12,9.12,0,0,0,8.91-9.27h0A9.13,9.13,0,0,0,614.27,186.27ZM603,193.07h-.59a1.24,1.24,0,0,1,0-2.47H603a1.24,1.24,0,0,1,0,2.47Zm7.72,6.81h-3.56a1.24,1.24,0,0,1,0-2.48h3.56a1.24,1.24,0,0,1,0,2.48Zm4.76-6.81h-.6a1.24,1.24,0,0,1,0-2.47h.6a1.24,1.24,0,0,1,0,2.47Z"/></g></g></svg>
